# xmcd
#
# Track frame offsets: 
#        150
#        25740
#        45477
#        65195
#        93640
#        118197
#        136072
#        164777
#        185757
#
# Disc length: 2674 seconds
#
# Revision: 1
# Processed by: cddbd v1.5.2PL0 Copyright (c) Steve Scherf et al.
# Submitted via: ExactAudioCopy v0.95b4
#
DISCID=840a7009
DTITLE=Kenny Burrell - The Gold Collection
DYEAR=1999
DGENRE=Jazz
TTITLE0=Night in Tunisia
TTITLE1=Mood Indigo
TTITLE2=St. Louis Blues
TTITLE3='Round Midnight
TTITLE4=Naima
TTITLE5=Struttin' With Some Bar-B-Que
TTITLE6=Lush Life
TTITLE7=When The Saints Go Marching In
TTITLE8=A Child is Born
EXTD=YEAR: 1977
EXTT0=
EXTT1=
EXTT2=
EXTT3=
EXTT4=
EXTT5=
EXTT6=
EXTT7=
EXTT8=
PLAYORDER=
